<svg width="26" height="25" viewBox="0 0 21 20" fill="none" xmlns="http://www.w3.org/2000/svg">
<g clip-path="url(#clip0_5:2)">
<path d="M19.6481 19.6285C19.4005 19.8762 19.1039 20 18.7586 20C18.4132 20 18.1166 19.8762 17.869 19.6285L13.998 15.7576C12.434 16.9176 10.6875 17.4976 8.75855 17.4976C7.5725 17.4976 6.43858 17.2662 5.35679 16.8035C4.27501 16.3408 3.34311 15.7185 2.56109 14.9365C1.77908 14.1544 1.15673 13.2258 0.694037 12.1505C0.231346 11.0753 0 9.94135 0 8.74878C0 7.55621 0.231346 6.41903 0.694037 5.33724C1.15673 4.25546 1.77908 3.32682 2.56109 2.55132C3.34311 1.77582 4.27501 1.15673 5.35679 0.694037C6.43858 0.231346 7.5725 0 8.75855 0C9.94461 0 11.0785 0.231346 12.1603 0.694037C13.2421 1.15673 14.174 1.77582 14.956 2.55132C15.738 3.32682 16.3604 4.25546 16.8231 5.33724C17.2858 6.41903 17.5171 7.55295 17.5171 8.739C17.5171 10.681 16.9371 12.4275 15.7771 13.9785L19.6481 17.8495C19.8957 18.0971 20.0196 18.3936 20.0196 18.739C20.0196 19.0844 19.8957 19.3809 19.6481 19.6285ZM8.75855 2.50244C7.62463 2.50244 6.57869 2.77941 5.62072 3.33333C4.66276 3.88726 3.90355 4.64646 3.34311 5.61095C2.78267 6.57543 2.50244 7.62138 2.50244 8.74878C2.50244 9.87618 2.78267 10.9221 3.34311 11.8866C3.90355 12.8511 4.66276 13.6103 5.62072 14.1642C6.57869 14.7181 7.62463 14.9951 8.75855 14.9951C9.89247 14.9951 10.9384 14.7181 11.8964 14.1642C12.8544 13.6103 13.6136 12.8511 14.174 11.8866C14.7344 10.9221 15.0147 9.87618 15.0147 8.74878C15.0147 7.62138 14.7344 6.57543 14.174 5.61095C13.6136 4.64646 12.8544 3.88726 11.8964 3.33333C10.9384 2.77941 9.89247 2.50244 8.75855 2.50244Z" fill="black"/>
</g>
<defs>
<clipPath id="clip0_5:2">
<rect width="20.02" height="20" fill="white"/>
</clipPath>
</defs>
</svg>
