<svg width="340" height="280" viewBox="0 0 340 280" fill="none" xmlns="http://www.w3.org/2000/svg">
<g clip-path="url(#clip0_609:41)">
<path fill-rule="evenodd" clip-rule="evenodd" d="M331.116 0.0412878C331.116 0.0412878 358.696 58.1539 316.666 91.1842C284.112 116.762 209.961 62.2827 248.071 188.892C278.251 289.201 107.827 227.259 50.7266 148.636C-8.53093 67.0927 0.491659 0 0.491659 0L331.116 0.0412878Z" fill="url(#paint0_linear_609:41)"/>
<path d="M223.149 101.982L213.392 219.797C212.664 228.59 218.876 236.336 227.267 237.099L271.909 241.159C280.3 241.922 287.692 235.413 288.42 226.62L298.177 108.806C298.905 100.013 292.694 92.2666 284.303 91.5035L239.661 87.4436C231.27 86.6805 223.877 93.1899 223.149 101.982Z" fill="#C24343"/>
<path fill-rule="evenodd" clip-rule="evenodd" d="M268.239 238.149C267.872 238.152 267.505 238.135 267.139 238.097L222.499 234.041C219.14 233.717 216.039 232.013 213.873 229.302C211.708 226.591 210.653 223.092 210.939 219.57L220.699 101.763C220.992 98.439 222.455 95.3481 224.802 93.0916C227.149 90.8351 230.214 89.5744 233.399 89.5547C233.759 89.5547 234.129 89.5547 234.499 89.5547L279.139 93.6101C282.506 93.9245 285.617 95.6237 287.791 98.336C289.965 101.048 291.025 104.552 290.739 108.082L280.939 225.941C280.649 229.266 279.187 232.358 276.839 234.615C274.491 236.872 271.425 238.132 268.239 238.149Z" fill="#DB9393"/>
<path d="M233.359 92.1757C233.652 92.16 233.946 92.16 234.239 92.1757L278.939 96.273C281.646 96.5234 284.147 97.8887 285.895 100.069C287.642 102.25 288.492 105.068 288.259 107.905L278.499 225.722C278.263 228.394 277.087 230.878 275.2 232.691C273.313 234.504 270.849 235.516 268.289 235.531C267.996 235.546 267.702 235.546 267.409 235.531L222.759 231.475C220.053 231.225 217.551 229.86 215.804 227.679C214.057 225.498 213.206 222.68 213.439 219.843L223.199 102.026C223.435 99.3545 224.611 96.8705 226.498 95.0575C228.386 93.2445 230.849 92.2322 233.409 92.2176L233.359 92.1757ZM233.409 86.978C229.596 86.9883 225.925 88.4911 223.114 91.1917C220.304 93.8922 218.558 97.5957 218.219 101.575L208.459 219.393C208.123 223.611 209.393 227.798 211.992 231.039C214.59 234.28 218.306 236.313 222.329 236.694L266.939 240.707C267.386 240.749 267.826 240.77 268.259 240.77C272.072 240.76 275.744 239.257 278.554 236.557C281.364 233.856 283.11 230.153 283.449 226.173L293.209 108.355C293.545 104.137 292.275 99.9505 289.677 96.7094C287.079 93.4682 283.362 91.4354 279.339 91.0544L234.679 87.0199C234.226 86.978 233.786 86.957 233.359 86.957L233.409 86.978Z" fill="#760000"/>
<path fill-rule="evenodd" clip-rule="evenodd" d="M275.029 91.7241L274.619 96.6807C274.484 98.2462 273.764 99.6922 272.616 100.703C271.467 101.714 269.984 102.208 268.489 102.077L243.579 99.814C242.085 99.6728 240.705 98.9181 239.741 97.7146C238.776 96.5111 238.304 94.9566 238.429 93.3902L238.839 88.4336" fill="#760000"/>
<path d="M253.829 141.615C261.379 141.615 267.499 135.201 267.499 127.29C267.499 119.378 261.379 112.965 253.829 112.965C246.28 112.965 240.159 119.378 240.159 127.29C240.159 135.201 246.28 141.615 253.829 141.615Z" fill="white"/>
<path fill-rule="evenodd" clip-rule="evenodd" d="M253.709 128.696C251.418 128.488 249.121 129.031 247.137 130.249C245.152 131.467 243.577 133.301 242.629 135.497C243.773 137.214 245.263 138.647 246.994 139.696C248.724 140.744 250.653 141.382 252.644 141.563C254.635 141.745 256.64 141.467 258.518 140.748C260.395 140.03 262.099 138.888 263.509 137.404C262.938 135.067 261.688 132.975 259.932 131.415C258.177 129.855 256.002 128.905 253.709 128.696Z" fill="#FFBB00"/>
<path d="M254.349 126.261C257.1 126.261 259.329 123.925 259.329 121.043C259.329 118.161 257.1 115.824 254.349 115.824C251.599 115.824 249.369 118.161 249.369 121.043C249.369 123.925 251.599 126.261 254.349 126.261Z" fill="#FFBB00"/>
<path d="M230.189 149.159L230.619 144.035L231.699 144.14L232.919 147.085L234.589 144.402L235.589 144.496L235.169 149.61L234.109 149.516L234.379 146.267L233.049 148.363L232.419 148.3L231.469 145.974L231.199 149.222L230.189 149.159Z" fill="black"/>
<path d="M237.159 149.758C236.946 149.662 236.755 149.519 236.599 149.339C236.441 149.146 236.321 148.921 236.249 148.679C236.169 148.39 236.145 148.087 236.179 147.788V147.641C236.195 147.357 236.267 147.078 236.389 146.824C236.5 146.604 236.653 146.412 236.839 146.258C237.028 146.12 237.237 146.017 237.459 145.954C237.694 145.891 237.938 145.869 238.179 145.891C238.422 145.909 238.659 145.973 238.879 146.08C239.092 146.176 239.283 146.319 239.439 146.499C239.603 146.675 239.723 146.891 239.789 147.128C239.873 147.401 239.9 147.691 239.869 147.976V148.123C239.85 148.422 239.775 148.714 239.649 148.982C239.541 149.21 239.388 149.41 239.199 149.569C239.02 149.725 238.807 149.833 238.579 149.884C238.344 149.947 238.101 149.968 237.859 149.947C237.619 149.919 237.383 149.855 237.159 149.758ZM238.299 149.087C238.412 149.045 238.515 148.977 238.599 148.888C238.694 148.785 238.769 148.664 238.819 148.532C238.88 148.375 238.917 148.208 238.929 148.039V147.893C238.961 147.737 238.961 147.577 238.929 147.421C238.901 147.289 238.846 147.164 238.769 147.054C238.696 146.955 238.604 146.873 238.499 146.813C238.39 146.756 238.271 146.721 238.149 146.708C238.027 146.682 237.901 146.682 237.779 146.708C237.665 146.748 237.559 146.812 237.469 146.897C237.378 146.989 237.306 147.099 237.259 147.222C237.195 147.367 237.157 147.523 237.149 147.683V147.83C237.123 148 237.123 148.173 237.149 148.343C237.18 148.481 237.235 148.613 237.309 148.731C237.377 148.835 237.47 148.918 237.579 148.972C237.691 149.033 237.813 149.069 237.939 149.077C238.057 149.105 238.18 149.109 238.299 149.087Z" fill="black"/>
<path d="M240.379 150.08L240.699 146.203L241.599 146.286L241.389 148.822L243.279 146.444L244.109 146.517L243.789 150.394L242.889 150.31L243.099 147.774L241.209 150.153L240.379 150.08ZM241.549 145.584C241.463 145.472 241.4 145.343 241.364 145.204C241.328 145.065 241.32 144.92 241.339 144.777L242.169 144.851C242.151 144.977 242.172 145.105 242.229 145.217C242.261 145.257 242.301 145.289 242.346 145.31C242.391 145.332 242.44 145.343 242.489 145.343C242.539 145.353 242.59 145.35 242.639 145.335C242.687 145.321 242.732 145.295 242.769 145.259C242.843 145.161 242.882 145.039 242.879 144.914L243.709 144.997C243.705 145.141 243.672 145.282 243.614 145.412C243.556 145.541 243.472 145.657 243.369 145.752C243.081 145.905 242.758 145.97 242.436 145.94C242.115 145.911 241.807 145.787 241.549 145.584Z" fill="black"/>
<path d="M246.229 150.616L246.549 146.738L249.899 147.042L249.579 150.919L248.659 150.836L248.939 147.797L247.439 147.66L247.179 150.731L246.229 150.616Z" fill="black"/>
<path d="M250.299 152.459L250.739 147.125L251.589 147.198V147.785C251.72 147.599 251.892 147.448 252.089 147.345C252.328 147.237 252.59 147.194 252.849 147.219C253.06 147.226 253.267 147.281 253.455 147.38C253.644 147.48 253.809 147.622 253.939 147.796C254.205 148.231 254.308 148.753 254.229 149.263V149.409C254.207 149.703 254.146 149.992 254.049 150.269C253.963 150.491 253.837 150.693 253.679 150.866C253.526 151.012 253.346 151.123 253.149 151.191C252.938 151.255 252.718 151.276 252.499 151.254C252.272 151.238 252.052 151.161 251.862 151.031C251.671 150.901 251.515 150.721 251.409 150.51L251.249 152.532L250.299 152.459ZM252.659 150.363C252.766 150.315 252.864 150.248 252.949 150.164C253.038 150.06 253.106 149.939 253.149 149.808C253.211 149.647 253.249 149.477 253.259 149.305V149.158C253.285 148.998 253.285 148.835 253.259 148.676C253.237 148.545 253.19 148.42 253.119 148.309C253.05 148.213 252.961 148.134 252.859 148.079C252.639 147.964 252.386 147.937 252.149 148.005C252.04 148.04 251.938 148.097 251.849 148.173C251.758 148.25 251.683 148.346 251.629 148.456C251.574 148.581 251.54 148.716 251.529 148.854V149.294C251.504 149.44 251.504 149.589 251.529 149.734C251.56 149.856 251.615 149.971 251.689 150.07C251.763 150.169 251.859 150.248 251.969 150.3C252.077 150.363 252.196 150.399 252.319 150.405C252.432 150.426 252.548 150.423 252.659 150.394V150.363Z" fill="black"/>
<path d="M255.669 151.445C255.455 151.346 255.264 151.2 255.109 151.016C254.95 150.824 254.831 150.599 254.759 150.356C254.683 150.069 254.659 149.771 254.689 149.475V149.329C254.707 149.04 254.782 148.758 254.909 148.501C255.014 148.28 255.168 148.09 255.359 147.945C255.544 147.801 255.755 147.697 255.979 147.641C256.214 147.578 256.458 147.557 256.699 147.579C256.941 147.598 257.178 147.662 257.399 147.767C257.612 147.859 257.803 147.998 257.959 148.176C258.12 148.359 258.239 148.577 258.309 148.815C258.389 149.09 258.416 149.378 258.389 149.664V149.811C258.369 150.109 258.294 150.401 258.169 150.67C258.062 150.893 257.91 151.089 257.724 151.245C257.537 151.4 257.321 151.512 257.089 151.571C256.854 151.631 256.61 151.649 256.369 151.624C256.128 151.603 255.892 151.543 255.669 151.445ZM256.809 150.764C256.924 150.731 257.028 150.666 257.109 150.576C257.204 150.473 257.279 150.352 257.329 150.219C257.395 150.06 257.432 149.89 257.439 149.716V149.57C257.46 149.413 257.46 149.255 257.439 149.098C257.407 148.968 257.349 148.847 257.269 148.742C257.2 148.643 257.111 148.561 257.009 148.501C256.896 148.444 256.774 148.409 256.649 148.396C256.527 148.37 256.401 148.37 256.279 148.396C256.166 148.432 256.063 148.496 255.979 148.585C255.885 148.675 255.81 148.786 255.759 148.909C255.698 149.056 255.661 149.211 255.649 149.371V149.517C255.618 149.687 255.618 149.861 255.649 150.031C255.677 150.17 255.731 150.302 255.809 150.418C255.878 150.517 255.967 150.599 256.069 150.659C256.181 150.721 256.303 150.757 256.429 150.764C256.555 150.792 256.684 150.792 256.809 150.764Z" fill="black"/>
<path d="M260.539 153.394L260.649 152.01C260.387 152.009 260.127 151.952 259.886 151.842C259.646 151.732 259.429 151.573 259.249 151.372C259.091 151.159 258.976 150.913 258.91 150.652C258.845 150.391 258.831 150.119 258.869 149.852V149.706C258.872 149.445 258.928 149.187 259.034 148.951C259.139 148.714 259.291 148.504 259.479 148.333C259.91 148.009 260.446 147.876 260.969 147.965L261.069 146.812L261.989 146.896L261.889 148.049C262.174 148.071 262.454 148.139 262.719 148.249C262.937 148.347 263.132 148.492 263.289 148.678C263.441 148.864 263.554 149.083 263.619 149.318C263.682 149.589 263.702 149.868 263.679 150.146V150.293C263.656 150.839 263.43 151.354 263.049 151.728C262.621 152.05 262.089 152.181 261.569 152.094L261.449 153.478L260.539 153.394ZM260.949 148.784C260.806 148.758 260.66 148.763 260.518 148.799C260.377 148.835 260.245 148.901 260.129 148.993C259.933 149.207 259.822 149.492 259.819 149.79V149.894C259.791 150.05 259.792 150.209 259.823 150.364C259.854 150.519 259.914 150.665 259.999 150.796C260.093 150.911 260.21 151.003 260.341 151.066C260.472 151.13 260.615 151.161 260.759 151.161L260.949 148.784ZM261.619 151.277C261.761 151.303 261.907 151.298 262.047 151.26C262.187 151.222 262.317 151.153 262.429 151.058C262.629 150.823 262.742 150.522 262.749 150.208V150.062C262.795 149.765 262.731 149.462 262.569 149.213C262.472 149.101 262.353 149.011 262.22 148.952C262.088 148.892 261.944 148.863 261.799 148.867L261.619 151.277Z" fill="black"/>
<path d="M264.189 152.252L264.509 148.375L265.409 148.459L265.199 150.995L267.099 148.606L267.929 148.689L267.609 152.556L266.709 152.483L266.919 149.947L265.019 152.326L264.189 152.252Z" fill="black"/>
<path d="M268.309 152.711H268.169L268.249 151.841H268.349C268.434 151.853 268.52 151.83 268.589 151.778C268.674 151.708 268.737 151.613 268.769 151.506C268.843 151.323 268.9 151.134 268.939 150.94C268.993 150.663 269.029 150.383 269.049 150.102L269.159 148.781L272.089 149.054L271.769 152.921L270.849 152.837L271.099 149.766L269.959 149.661L269.909 150.322C269.882 150.738 269.822 151.152 269.729 151.558C269.671 151.822 269.569 152.074 269.429 152.302C269.334 152.465 269.19 152.59 269.019 152.659C268.841 152.697 268.657 152.697 268.479 152.659L268.309 152.711Z" fill="black"/>
<path d="M272.619 153.037L272.939 149.16L273.859 149.244L273.749 150.575L274.539 150.638C274.908 150.657 275.26 150.805 275.539 151.057C275.653 151.191 275.736 151.35 275.785 151.522C275.833 151.694 275.845 151.875 275.819 152.052C275.803 152.23 275.759 152.403 275.689 152.566C275.622 152.714 275.523 152.843 275.399 152.943C275.256 153.045 275.097 153.12 274.929 153.163C274.714 153.196 274.495 153.196 274.279 153.163L272.619 153.037ZM273.619 152.367L274.309 152.43C274.477 152.461 274.65 152.431 274.799 152.346C274.887 152.249 274.937 152.122 274.939 151.99C274.95 151.917 274.946 151.843 274.927 151.772C274.908 151.702 274.875 151.636 274.829 151.581C274.697 151.468 274.53 151.409 274.359 151.413L273.679 151.35L273.619 152.367Z" fill="black"/>
<path d="M254.349 158.359H183.289C180.473 158.359 178.189 160.752 178.189 163.704V206.239C178.189 209.19 180.473 211.583 183.289 211.583H254.349C257.166 211.583 259.449 209.19 259.449 206.239V163.704C259.449 160.752 257.166 158.359 254.349 158.359Z" fill="white"/>
<path d="M254.349 158.359H183.289C180.473 158.359 178.189 160.752 178.189 163.704V206.239C178.189 209.19 180.473 211.583 183.289 211.583H254.349C257.166 211.583 259.449 209.19 259.449 206.239V163.704C259.449 160.752 257.166 158.359 254.349 158.359Z" fill="url(#paint1_linear_609:41)"/>
<path d="M185.639 166.598H184.269V193.948H185.639V166.598Z" fill="black"/>
<path d="M186.999 166.598H186.319V193.948H186.999V166.598Z" fill="black"/>
<path d="M190.419 166.598H188.369V193.948H190.419V166.598Z" fill="black"/>
<path d="M192.469 166.598H191.789V193.948H192.469V166.598Z" fill="black"/>
<path d="M194.529 166.598H193.159V193.948H194.529V166.598Z" fill="black"/>
<path d="M197.949 166.598H195.899V193.948H197.949V166.598Z" fill="black"/>
<path d="M199.999 166.598H199.319V193.948H199.999V166.598Z" fill="black"/>
<path d="M202.739 166.598H202.059V193.948H202.739V166.598Z" fill="black"/>
<path d="M204.799 166.598H203.429V193.948H204.799V166.598Z" fill="black"/>
<path d="M208.899 166.598H206.849V193.948H208.899V166.598Z" fill="black"/>
<path d="M211.629 166.598H210.949V193.948H211.629V166.598Z" fill="black"/>
<path d="M213.689 166.598H212.319V193.948H213.689V166.598Z" fill="black"/>
<path d="M215.749 166.598H214.379V193.948H215.749V166.598Z" fill="black"/>
<path d="M219.159 166.598H218.479V193.948H219.159V166.598Z" fill="black"/>
<path d="M220.529 166.598H219.849V193.948H220.529V166.598Z" fill="black"/>
<path d="M222.579 166.598H221.899V193.948H222.579V166.598Z" fill="black"/>
<path d="M226.009 166.598H223.269V193.948H226.009V166.598Z" fill="black"/>
<path d="M228.739 166.598H226.689V193.948H228.739V166.598Z" fill="black"/>
<path d="M231.479 166.598H229.429V193.948H231.479V166.598Z" fill="black"/>
<path d="M233.529 166.598H232.849V193.948H233.529V166.598Z" fill="black"/>
<path d="M235.589 166.598H234.219V193.948H235.589V166.598Z" fill="black"/>
<path d="M237.639 166.598H236.959V193.948H237.639V166.598Z" fill="black"/>
<path d="M242.429 166.598H239.689V193.948H242.429V166.598Z" fill="black"/>
<path d="M243.799 166.598H243.119V193.948H243.799V166.598Z" fill="black"/>
<path d="M245.849 166.598H244.479V193.948H245.849V166.598Z" fill="black"/>
<path d="M249.959 166.598H247.909V193.948H249.959V166.598Z" fill="black"/>
<path d="M251.319 166.598H250.639V193.948H251.319V166.598Z" fill="black"/>
<path d="M253.379 166.598H252.009V193.948H253.379V166.598Z" fill="black"/>
<path d="M200.869 203.979V203.056H201.939V199.986L200.829 200.814V199.682L201.949 198.844H203.009V203.035H203.909V203.958L200.869 203.979Z" fill="black"/>
<path d="M204.299 203.977V203.17L206.039 201.63C206.189 201.493 206.319 201.378 206.429 201.263C206.525 201.17 206.612 201.068 206.689 200.959C206.754 200.874 206.805 200.779 206.839 200.676C206.855 200.579 206.855 200.48 206.839 200.383C206.846 200.198 206.785 200.018 206.669 199.88C206.534 199.756 206.359 199.692 206.179 199.701C206.071 199.693 205.962 199.71 205.861 199.75C205.759 199.789 205.666 199.852 205.589 199.932C205.442 200.136 205.371 200.389 205.389 200.645H204.329C204.325 200.377 204.366 200.111 204.449 199.859C204.523 199.633 204.647 199.428 204.809 199.261C204.976 199.097 205.173 198.972 205.389 198.895C205.642 198.798 205.91 198.752 206.179 198.758C206.434 198.754 206.687 198.793 206.929 198.874C207.129 198.951 207.313 199.068 207.469 199.219C207.613 199.362 207.722 199.538 207.789 199.733C207.863 199.941 207.901 200.161 207.899 200.383C207.899 200.554 207.872 200.724 207.819 200.886C207.757 201.049 207.677 201.204 207.579 201.347C207.474 201.502 207.353 201.646 207.219 201.776L206.769 202.185L205.719 203.055H207.969V203.977H204.299Z" fill="black"/>
<path d="M209.569 203.935C209.359 203.863 209.164 203.745 208.999 203.589C208.845 203.437 208.726 203.251 208.649 203.044C208.568 202.828 208.527 202.596 208.529 202.363H209.589C209.581 202.466 209.594 202.57 209.627 202.667C209.659 202.765 209.712 202.854 209.779 202.929C209.861 203.004 209.957 203.06 210.06 203.094C210.163 203.128 210.272 203.14 210.379 203.128C210.581 203.142 210.78 203.079 210.939 202.95C211 202.883 211.048 202.804 211.079 202.718C211.11 202.631 211.124 202.539 211.119 202.447C211.125 202.355 211.112 202.262 211.081 202.175C211.05 202.088 211.002 202.01 210.939 201.944C210.773 201.804 210.562 201.737 210.349 201.755H209.939V200.917H210.379C210.568 200.934 210.757 200.878 210.909 200.76C210.967 200.697 211.011 200.623 211.041 200.542C211.07 200.461 211.083 200.375 211.079 200.288C211.082 200.208 211.069 200.128 211.039 200.054C211.01 199.98 210.966 199.913 210.909 199.859C210.767 199.743 210.589 199.688 210.409 199.701C210.313 199.69 210.214 199.7 210.122 199.731C210.029 199.761 209.943 199.812 209.869 199.88C209.807 199.945 209.759 200.024 209.728 200.111C209.696 200.197 209.683 200.29 209.689 200.383H208.629C208.627 200.156 208.668 199.932 208.749 199.722C208.826 199.524 208.942 199.346 209.089 199.198C209.25 199.052 209.437 198.941 209.639 198.874C209.879 198.795 210.129 198.756 210.379 198.758C210.633 198.753 210.886 198.788 211.129 198.863C211.329 198.924 211.515 199.024 211.679 199.157C211.822 199.275 211.938 199.426 212.019 199.597C212.097 199.774 212.134 199.968 212.129 200.163C212.138 200.423 212.06 200.678 211.909 200.886C211.75 201.085 211.538 201.231 211.299 201.305C211.56 201.372 211.794 201.522 211.969 201.734C212.134 201.971 212.215 202.26 212.199 202.552C212.201 202.761 212.16 202.968 212.079 203.16C211.991 203.344 211.869 203.508 211.719 203.642C211.548 203.785 211.351 203.892 211.139 203.956C210.893 204.035 210.637 204.074 210.379 204.071C210.104 204.082 209.828 204.036 209.569 203.935Z" fill="black"/>
<path d="M214.939 203.978V202.93H212.639V202.155L214.969 198.875H215.969V202.019H216.529V202.941H215.969V203.989L214.939 203.978ZM213.629 201.977H214.939V200.091L213.629 201.977Z" fill="black"/>
<path d="M218.149 203.934C217.95 203.861 217.766 203.747 217.609 203.598C217.474 203.459 217.368 203.291 217.299 203.106C217.232 202.914 217.195 202.713 217.189 202.509H218.189C218.201 202.693 218.28 202.865 218.409 202.991C218.476 203.056 218.555 203.106 218.641 203.138C218.727 203.171 218.818 203.185 218.909 203.179C219.016 203.188 219.123 203.171 219.221 203.129C219.32 203.087 219.409 203.022 219.479 202.938C219.611 202.731 219.674 202.484 219.659 202.236C219.663 202.094 219.643 201.952 219.599 201.817C219.569 201.713 219.514 201.62 219.439 201.545C219.374 201.471 219.291 201.417 219.199 201.387C219.103 201.371 219.005 201.371 218.909 201.387C218.767 201.383 218.627 201.415 218.499 201.482C218.39 201.543 218.297 201.634 218.229 201.744H217.229V198.883H220.419V199.805H218.259V200.769C218.363 200.662 218.49 200.583 218.629 200.539C218.786 200.494 218.947 200.473 219.109 200.476C219.33 200.471 219.55 200.507 219.759 200.58C219.948 200.657 220.118 200.775 220.259 200.926C220.406 201.083 220.515 201.273 220.579 201.482C220.659 201.735 220.697 202.001 220.689 202.268C220.696 202.526 220.651 202.782 220.559 203.022C220.486 203.245 220.362 203.446 220.199 203.609C220.036 203.777 219.837 203.902 219.619 203.976C219.38 204.071 219.125 204.117 218.869 204.112C218.621 204.098 218.377 204.038 218.149 203.934Z" fill="black"/>
<path d="M222.499 203.923C222.265 203.841 222.057 203.692 221.899 203.493C221.72 203.271 221.59 203.01 221.519 202.728C221.434 202.386 221.39 202.034 221.389 201.68V201.534C221.38 201.112 221.431 200.692 221.539 200.287C221.622 199.976 221.765 199.687 221.959 199.438C222.126 199.222 222.343 199.056 222.589 198.956C222.846 198.857 223.117 198.807 223.389 198.809C223.595 198.805 223.8 198.83 223.999 198.882C224.172 198.927 224.335 199.005 224.479 199.113C224.618 199.22 224.734 199.355 224.819 199.511C224.915 199.697 224.976 199.899 224.999 200.108H223.999C223.966 199.982 223.892 199.871 223.789 199.794C223.666 199.728 223.528 199.695 223.389 199.7C223.256 199.697 223.123 199.722 222.999 199.773C222.879 199.821 222.775 199.905 222.699 200.014C222.608 200.154 222.54 200.31 222.499 200.475C222.444 200.716 222.414 200.962 222.409 201.209C222.472 201.115 222.546 201.031 222.629 200.957C222.715 200.887 222.809 200.831 222.909 200.79C223.013 200.751 223.12 200.723 223.229 200.706C223.339 200.695 223.45 200.695 223.559 200.706C223.784 200.703 224.008 200.742 224.219 200.821C224.402 200.893 224.569 201.003 224.709 201.146C224.848 201.287 224.954 201.459 225.019 201.649C225.091 201.868 225.124 202.099 225.119 202.33V202.288C225.125 202.533 225.08 202.775 224.989 203.001C224.905 203.211 224.779 203.4 224.619 203.556C224.454 203.705 224.264 203.822 224.059 203.902C223.83 203.996 223.586 204.043 223.339 204.038C223.055 204.054 222.77 204.015 222.499 203.923ZM223.839 202.959C223.912 202.88 223.969 202.786 224.005 202.683C224.041 202.581 224.056 202.471 224.049 202.361V202.288C224.056 202.177 224.04 202.066 224.004 201.962C223.968 201.857 223.912 201.761 223.839 201.68C223.669 201.552 223.464 201.482 223.254 201.482C223.044 201.482 222.84 201.552 222.669 201.68C222.597 201.761 222.541 201.857 222.505 201.962C222.469 202.066 222.453 202.177 222.459 202.288V202.361C222.453 202.471 222.468 202.581 222.504 202.683C222.54 202.786 222.597 202.88 222.669 202.959C222.834 203.101 223.041 203.179 223.254 203.179C223.468 203.179 223.675 203.101 223.839 202.959Z" fill="black"/>
<path d="M226.259 203.977L227.909 199.785H225.559V198.863H228.989V199.67L227.379 203.998L226.259 203.977Z" fill="black"/>
<path d="M230.609 203.967C230.394 203.904 230.19 203.801 230.009 203.663C229.851 203.535 229.725 203.37 229.639 203.181C229.554 202.991 229.51 202.783 229.509 202.573C229.508 202.294 229.6 202.023 229.769 201.808C229.956 201.563 230.217 201.393 230.509 201.326C230.389 201.284 230.274 201.224 230.169 201.148C230.066 201.081 229.975 200.996 229.899 200.896C229.82 200.797 229.759 200.683 229.719 200.561C229.676 200.433 229.652 200.299 229.649 200.163C229.643 199.963 229.682 199.764 229.761 199.582C229.841 199.4 229.96 199.24 230.109 199.115C230.272 198.982 230.459 198.885 230.659 198.832C230.899 198.757 231.149 198.722 231.399 198.727C231.653 198.722 231.906 198.757 232.149 198.832C232.35 198.885 232.537 198.982 232.699 199.115C232.845 199.235 232.961 199.389 233.039 199.565C233.113 199.744 233.151 199.937 233.149 200.131C233.155 200.393 233.074 200.648 232.919 200.854C232.749 201.056 232.532 201.207 232.289 201.295C232.575 201.373 232.835 201.533 233.039 201.756C233.212 201.977 233.301 202.256 233.289 202.542C233.29 202.744 233.246 202.944 233.161 203.125C233.076 203.307 232.952 203.466 232.799 203.589C232.616 203.724 232.414 203.826 232.199 203.893C231.678 204.033 231.131 204.033 230.609 203.893V203.967ZM231.799 203.139C231.896 203.111 231.988 203.064 232.069 203.003C232.139 202.944 232.194 202.869 232.229 202.783C232.261 202.696 232.278 202.603 232.279 202.51C232.281 202.405 232.26 202.301 232.216 202.206C232.173 202.112 232.109 202.029 232.029 201.965C231.858 201.802 231.636 201.712 231.404 201.712C231.173 201.712 230.951 201.802 230.779 201.965C230.698 202.027 230.633 202.11 230.589 202.205C230.545 202.3 230.525 202.405 230.529 202.51C230.514 202.6 230.514 202.692 230.529 202.783C230.568 202.869 230.627 202.945 230.699 203.003C230.781 203.064 230.872 203.111 230.969 203.139C231.093 203.174 231.221 203.191 231.349 203.191C231.501 203.198 231.653 203.18 231.799 203.139ZM231.929 200.75C231.999 200.691 232.054 200.615 232.091 200.53C232.127 200.444 232.144 200.351 232.139 200.257C232.145 200.17 232.131 200.082 232.098 200.002C232.065 199.922 232.014 199.851 231.949 199.796C231.788 199.681 231.594 199.626 231.399 199.639C231.208 199.626 231.017 199.681 230.859 199.796C230.793 199.85 230.742 199.921 230.708 200.001C230.675 200.082 230.662 200.17 230.669 200.257C230.664 200.349 230.681 200.441 230.717 200.525C230.754 200.609 230.81 200.683 230.879 200.739C231.032 200.859 231.211 200.938 231.399 200.97C231.593 200.938 231.777 200.863 231.939 200.75H231.929Z" fill="black"/>
<path d="M235.039 204C234.865 203.953 234.699 203.875 234.549 203.769C234.406 203.664 234.289 203.524 234.209 203.36C234.113 203.179 234.051 202.98 234.029 202.773H235.029C235.073 202.895 235.15 203 235.249 203.077C235.38 203.155 235.529 203.191 235.679 203.182C235.806 203.186 235.933 203.161 236.049 203.109C236.165 203.057 236.265 202.974 236.339 202.868C236.431 202.727 236.499 202.571 236.539 202.407C236.586 202.165 236.613 201.92 236.619 201.673C236.56 201.766 236.49 201.851 236.409 201.925C236.322 201.987 236.228 202.04 236.129 202.082C236.026 202.123 235.919 202.154 235.809 202.176H235.469C235.248 202.183 235.027 202.144 234.819 202.061C234.636 201.994 234.469 201.887 234.329 201.746C234.191 201.602 234.085 201.426 234.019 201.233C233.946 201.018 233.909 200.791 233.909 200.562V200.489C233.907 200.24 233.955 199.994 234.049 199.766C234.133 199.558 234.259 199.372 234.419 199.221C234.583 199.066 234.773 198.945 234.979 198.865C235.211 198.779 235.454 198.736 235.699 198.739C235.978 198.732 236.256 198.778 236.519 198.875C236.752 198.961 236.959 199.109 237.119 199.305C237.293 199.525 237.42 199.783 237.489 200.059C237.584 200.421 237.628 200.795 237.619 201.17V201.317C237.628 201.741 237.577 202.165 237.469 202.574C237.391 202.884 237.251 203.173 237.059 203.423C236.897 203.636 236.683 203.799 236.439 203.895C236.192 204.001 235.927 204.055 235.659 204.052C235.452 204.057 235.244 204.039 235.039 204ZM236.359 201.139C236.431 201.059 236.486 200.965 236.52 200.862C236.555 200.759 236.568 200.65 236.559 200.541V200.468C236.565 200.359 236.549 200.249 236.513 200.147C236.477 200.044 236.421 199.95 236.349 199.871C236.272 199.795 236.18 199.737 236.081 199.699C235.981 199.661 235.875 199.645 235.769 199.651C235.664 199.637 235.556 199.649 235.455 199.686C235.354 199.722 235.263 199.781 235.187 199.86C235.111 199.939 235.053 200.034 235.017 200.139C234.981 200.244 234.968 200.357 234.979 200.468V200.541C234.972 200.651 234.987 200.761 235.023 200.864C235.059 200.967 235.116 201.06 235.189 201.139C235.266 201.216 235.357 201.275 235.457 201.313C235.557 201.351 235.663 201.367 235.769 201.359C235.877 201.366 235.985 201.35 236.086 201.313C236.188 201.275 236.281 201.216 236.359 201.139Z" fill="black"/>
</g>
<defs>
<linearGradient id="paint0_linear_609:41" x1="206.189" y1="243.691" x2="155.857" y2="-28.6941" gradientUnits="userSpaceOnUse">
<stop stop-color="#C24343" stop-opacity="0.51"/>
<stop offset="0.21" stop-color="#C24343" stop-opacity="0.19"/>
<stop offset="0.47" stop-color="#4374C2" stop-opacity="0.09"/>
<stop offset="0.4701" stop-color="#C24343" stop-opacity="0.0849228"/>
<stop offset="0.7399" stop-color="#C24343" stop-opacity="0.0201002"/>
<stop offset="0.74" stop-color="#C24343" stop-opacity="0.02"/>
<stop offset="1" stop-color="#C24343" stop-opacity="0"/>
</linearGradient>
<linearGradient id="paint1_linear_609:41" x1="250.339" y1="218.007" x2="184.351" y2="155.025" gradientUnits="userSpaceOnUse">
<stop stop-color="#F3D7D7"/>
<stop offset="1" stop-color="white"/>
</linearGradient>
<clipPath id="clip0_609:41">
<rect width="340" height="280" fill="white"/>
</clipPath>
</defs>
</svg>
