<svg width="16" height="16" viewBox="0 0 16 16" fill="none" xmlns="http://www.w3.org/2000/svg">
<path d="M7.99988 1.3913C6.90943 1.3913 6.05751 1.77535 5.44413 2.54347C4.83076 3.31159 4.52407 4.29347 4.52407 5.48912C4.51649 6.97463 5.01628 8.15217 6.02344 9.02173C6.15217 9.13767 6.19761 9.28622 6.15974 9.46738L5.89849 9.98912C5.81519 10.163 5.69214 10.2989 5.52933 10.3967C5.36652 10.4946 5.02386 10.634 4.50135 10.8152C4.47863 10.8225 3.99966 10.971 3.06445 11.2609C2.12924 11.5507 1.63134 11.7101 1.57076 11.7391C0.934662 11.9927 0.51817 12.2572 0.321283 12.5326C0.109251 12.9891 0.00323486 14.1449 0.00323486 16H15.9965C15.9965 14.1449 15.8905 12.9891 15.6785 12.5326C15.4816 12.2572 15.0651 11.9927 14.429 11.7391C14.3684 11.7101 13.8705 11.5507 12.9353 11.2609C12.0001 10.971 11.5211 10.8225 11.4984 10.8152C10.9759 10.634 10.6332 10.4946 10.4704 10.3967C10.3076 10.2989 10.1846 10.163 10.1013 9.98912L9.84002 9.46738C9.80216 9.28622 9.84759 9.13767 9.97632 9.02173C10.9835 8.15217 11.4833 6.97463 11.4757 5.48912C11.4757 4.29347 11.169 3.31159 10.5556 2.54347C9.94225 1.77535 9.09033 1.3913 7.99988 1.3913Z" fill="white"/>
</svg>
